ISO-10303-21;
HEADER;
FILE_DESCRIPTION(('ViewDefinition [CoordinationView]'),'2;1');
FILE_NAME('ejemplo.ifc','2026-09-06T00:00:00',(''),(''),'visor-escaneo','generar_ifc_ejemplo.py','');
FILE_SCHEMA(('IFC4'));
ENDSEC;
DATA;
#1=IFCCARTESIANPOINT((0.,0.,0.));
#2=IFCDIRECTION((0.,0.,1.));
#3=IFCDIRECTION((1.,0.,0.));
#4=IFCAXIS2PLACEMENT3D(#1,#2,#3);
#5=IFCGEOMETRICREPRESENTATIONCONTEXT($,'Model',3,1.E-05,#4,$);
#6=IFCSIUNIT(*,.LENGTHUNIT.,$,.METRE.);
#7=IFCSIUNIT(*,.AREAUNIT.,$,.SQUARE_METRE.);
#8=IFCSIUNIT(*,.VOLUMEUNIT.,$,.CUBIC_METRE.);
#9=IFCUNITASSIGNMENT((#6,#7,#8));
#10=IFCPROJECT('ldwC5W16PWcJFE6SUqmLAj',$,'Vivienda de ejemplo',$,$,$,$,(#5),#9);
#11=IFCLOCALPLACEMENT($,#4);
#12=IFCSITE('uA_X7_tNiUNQ650my4zqdM',$,'Solar',$,$,#11,$,$,.ELEMENT.,$,$,$,$,$);
#13=IFCLOCALPLACEMENT(#11,#4);
#14=IFCBUILDING('O7RobsHAEJwDXEOWL3AxSm',$,'Edificio',$,$,#13,$,$,.ELEMENT.,$,$,$);
#15=IFCLOCALPLACEMENT(#13,#4);
#16=IFCBUILDINGSTOREY('iOJrx7hiN25z0S$tIL$j$$',$,'Planta baja',$,$,#15,$,$,.ELEMENT.,0.);
#17=IFCRELAGGREGATES('9Eu8wTWL657t$B0DpXkiW6',$,$,$,#10,(#12));
#18=IFCRELAGGREGATES('CROb7KJfUZarpZvA4gd64x',$,$,$,#12,(#14));
#19=IFCRELAGGREGATES('gkm1Uhzu_HPwMwLuHieNx6',$,$,$,#14,(#16));
#20=IFCCARTESIANPOINT((3.5000,2.5000,-0.2000));
#21=IFCDIRECTION((1.000000,0.000000,0.));
#22=IFCAXIS2PLACEMENT3D(#20,#2,#21);
#23=IFCLOCALPLACEMENT(#15,#22);
#24=IFCCARTESIANPOINT((0.,0.));
#25=IFCAXIS2PLACEMENT2D(#24,$);
#26=IFCRECTANGLEPROFILEDEF(.AREA.,$,#25,7.0000,5.0000);
#27=IFCEXTRUDEDAREASOLID(#26,#4,#2,0.2000);
#28=IFCSHAPEREPRESENTATION(#5,'Body','SweptSolid',(#27));
#29=IFCPRODUCTDEFINITIONSHAPE($,$,(#28));
#30=IFCSLAB('zB_YWLAM8XpHoiQ3Fv4w__',$,'Forjado planta baja',$,$,#23,#29,$,.FLOOR.);
#31=IFCCARTESIANPOINT((3.5000,0.0750,0.0000));
#32=IFCDIRECTION((1.000000,0.000000,0.));
#33=IFCAXIS2PLACEMENT3D(#31,#2,#32);
#34=IFCLOCALPLACEMENT(#15,#33);
#35=IFCCARTESIANPOINT((0.,0.));
#36=IFCAXIS2PLACEMENT2D(#35,$);
#37=IFCRECTANGLEPROFILEDEF(.AREA.,$,#36,7.0000,0.1500);
#38=IFCEXTRUDEDAREASOLID(#37,#4,#2,2.6000);
#39=IFCSHAPEREPRESENTATION(#5,'Body','SweptSolid',(#38));
#40=IFCPRODUCTDEFINITIONSHAPE($,$,(#39));
#41=IFCWALL('KqtY2laV92wFgO76nqzc$O',$,'Fachada sur',$,$,#34,#40,$,$);
#42=IFCCARTESIANPOINT((3.5000,4.9250,0.0000));
#43=IFCDIRECTION((1.000000,0.000000,0.));
#44=IFCAXIS2PLACEMENT3D(#42,#2,#43);
#45=IFCLOCALPLACEMENT(#15,#44);
#46=IFCCARTESIANPOINT((0.,0.));
#47=IFCAXIS2PLACEMENT2D(#46,$);
#48=IFCRECTANGLEPROFILEDEF(.AREA.,$,#47,7.0000,0.1500);
#49=IFCEXTRUDEDAREASOLID(#48,#4,#2,2.6000);
#50=IFCSHAPEREPRESENTATION(#5,'Body','SweptSolid',(#49));
#51=IFCPRODUCTDEFINITIONSHAPE($,$,(#50));
#52=IFCWALL('_NVzBRuH4kJacyOFfYovyQ',$,'Fachada norte',$,$,#45,#51,$,$);
#53=IFCCARTESIANPOINT((0.0750,2.5000,0.0000));
#54=IFCDIRECTION((0.000000,1.000000,0.));
#55=IFCAXIS2PLACEMENT3D(#53,#2,#54);
#56=IFCLOCALPLACEMENT(#15,#55);
#57=IFCCARTESIANPOINT((0.,0.));
#58=IFCAXIS2PLACEMENT2D(#57,$);
#59=IFCRECTANGLEPROFILEDEF(.AREA.,$,#58,5.0000,0.1500);
#60=IFCEXTRUDEDAREASOLID(#59,#4,#2,2.6000);
#61=IFCSHAPEREPRESENTATION(#5,'Body','SweptSolid',(#60));
#62=IFCPRODUCTDEFINITIONSHAPE($,$,(#61));
#63=IFCWALL('VWOeUD7gCHmb2QuhAXUUyv',$,'Fachada oeste',$,$,#56,#62,$,$);
#64=IFCCARTESIANPOINT((6.9250,2.5000,0.0000));
#65=IFCDIRECTION((0.000000,1.000000,0.));
#66=IFCAXIS2PLACEMENT3D(#64,#2,#65);
#67=IFCLOCALPLACEMENT(#15,#66);
#68=IFCCARTESIANPOINT((0.,0.));
#69=IFCAXIS2PLACEMENT2D(#68,$);
#70=IFCRECTANGLEPROFILEDEF(.AREA.,$,#69,5.0000,0.1500);
#71=IFCEXTRUDEDAREASOLID(#70,#4,#2,2.6000);
#72=IFCSHAPEREPRESENTATION(#5,'Body','SweptSolid',(#71));
#73=IFCPRODUCTDEFINITIONSHAPE($,$,(#72));
#74=IFCWALL('6tj6f6VqKzZypo6etyxX4L',$,'Fachada este',$,$,#67,#73,$,$);
#75=IFCCARTESIANPOINT((4.2000,2.5000,0.0000));
#76=IFCDIRECTION((0.000000,1.000000,0.));
#77=IFCAXIS2PLACEMENT3D(#75,#2,#76);
#78=IFCLOCALPLACEMENT(#15,#77);
#79=IFCCARTESIANPOINT((0.,0.));
#80=IFCAXIS2PLACEMENT2D(#79,$);
#81=IFCRECTANGLEPROFILEDEF(.AREA.,$,#80,5.0000,0.0800);
#82=IFCEXTRUDEDAREASOLID(#81,#4,#2,2.6000);
#83=IFCSHAPEREPRESENTATION(#5,'Body','SweptSolid',(#82));
#84=IFCPRODUCTDEFINITIONSHAPE($,$,(#83));
#85=IFCWALL('N80Or2_GOARpCclVlLwXrn',$,'Tabique salón-dormitorio',$,$,#78,#84,$,$);
#86=IFCCARTESIANPOINT((4.2000,1.1000,0.0000));
#87=IFCDIRECTION((0.000000,1.000000,0.));
#88=IFCAXIS2PLACEMENT3D(#86,#2,#87);
#89=IFCLOCALPLACEMENT(#15,#88);
#90=IFCCARTESIANPOINT((0.,0.));
#91=IFCAXIS2PLACEMENT2D(#90,$);
#92=IFCRECTANGLEPROFILEDEF(.AREA.,$,#91,0.9000,0.0800);
#93=IFCEXTRUDEDAREASOLID(#92,#4,#2,2.1000);
#94=IFCSHAPEREPRESENTATION(#5,'Body','SweptSolid',(#93));
#95=IFCPRODUCTDEFINITIONSHAPE($,$,(#94));
#96=IFCDOOR('26yzGAjelHhr_fLrppZd0p',$,'Puerta de paso',$,$,#89,#95,$,2.10,0.90,$,$);
#97=IFCCARTESIANPOINT((2.0000,0.0750,1.0000));
#98=IFCDIRECTION((1.000000,0.000000,0.));
#99=IFCAXIS2PLACEMENT3D(#97,#2,#98);
#100=IFCLOCALPLACEMENT(#15,#99);
#101=IFCCARTESIANPOINT((0.,0.));
#102=IFCAXIS2PLACEMENT2D(#101,$);
#103=IFCRECTANGLEPROFILEDEF(.AREA.,$,#102,1.4000,0.1500);
#104=IFCEXTRUDEDAREASOLID(#103,#4,#2,1.2000);
#105=IFCSHAPEREPRESENTATION(#5,'Body','SweptSolid',(#104));
#106=IFCPRODUCTDEFINITIONSHAPE($,$,(#105));
#107=IFCWINDOW('TfGKnbcCvx$isJMHIJhNx9',$,'Ventana salón',$,$,#100,#106,$,1.20,1.40,$,$);
#108=IFCCARTESIANPOINT((2.1000,2.5000,0.0000));
#109=IFCDIRECTION((1.000000,0.000000,0.));
#110=IFCAXIS2PLACEMENT3D(#108,#2,#109);
#111=IFCLOCALPLACEMENT(#15,#110);
#112=IFCCARTESIANPOINT((0.,0.));
#113=IFCAXIS2PLACEMENT2D(#112,$);
#114=IFCRECTANGLEPROFILEDEF(.AREA.,$,#113,4.0500,4.7000);
#115=IFCEXTRUDEDAREASOLID(#114,#4,#2,2.6000);
#116=IFCSHAPEREPRESENTATION(#5,'Body','SweptSolid',(#115));
#117=IFCPRODUCTDEFINITIONSHAPE($,$,(#116));
#118=IFCSPACE('2u_FBq1EknIj7HoSLRAQF1',$,'Salón',$,$,#111,#117,$,.ELEMENT.,$);
#119=IFCCARTESIANPOINT((2.1000,2.5000,0.7100));
#120=IFCDIRECTION((1.000000,0.000000,0.));
#121=IFCAXIS2PLACEMENT3D(#119,#2,#120);
#122=IFCLOCALPLACEMENT(#15,#121);
#123=IFCCARTESIANPOINT((0.,0.));
#124=IFCAXIS2PLACEMENT2D(#123,$);
#125=IFCRECTANGLEPROFILEDEF(.AREA.,$,#124,1.6000,0.9000);
#126=IFCEXTRUDEDAREASOLID(#125,#4,#2,0.0400);
#127=IFCSHAPEREPRESENTATION(#5,'Body','SweptSolid',(#126));
#128=IFCPRODUCTDEFINITIONSHAPE($,$,(#127));
#129=IFCFURNISHINGELEMENT('xpX1fJrNtaureHzm2CAG4k',$,'Mesa de comedor',$,$,#122,#128,$);
#130=IFCRELCONTAINEDINSPATIALSTRUCTURE('Gw13Dh92RYhTACyetRZdt8',$,$,$,(#30,#41,#52,#63,#74,#85,#96,#107,#118,#129),#16);
ENDSEC;
END-ISO-10303-21;
